# xmcd
#
# Track frame offsets:
#	150
#	14785
#	31289
#	47644
#	58460
#	77902
#	92945
#	102758
#	114101
#	126543
#	139877
#	152809
#	163029
#	172924
#	184894
#
# Disc length: 2600 seconds
#
# Revision: 1
# Processed by: cddbd v1.5.2PL0 Copyright (c) Steve Scherf et al.
# Submitted via: audiograbber 1.83.01
#
DISCID=d10a260f
DTITLE=Various Artist - 60 Greatest Trucker and Country Hits - CD4
DYEAR=2018
DGENRE=Country
TTITLE0=Lee Hazlewood - These Boots Are Made For Walking
TTITLE1=Gordon Lightfood - Diddley Dee, Diddley Dee
TTITLE2=Rex Allan - Memory Train
TTITLE3=Roger Miller - King Of The Road
TTITLE4=Tanya Tucker - Delta Dawn
TTITLE5=Merle Haggard - Today I Started Loving You Again
TTITLE6=Ned Miller - From A Jack To A King
TTITLE7=Hank Snow - The Hobo's Last Ride
TTITLE8=Frankie Lane - Moonlight Gambler
TTITLE9=The Oak Ridge Boys - Hide Thou Me
TTITLE10=Anne Murray - Path Of Victory
TTITLE11=Loretta Lynn - Out Of My Head And Back In My Bed
TTITLE12=Hank Locklin - Please Help Me, I'm Falling
TTITLE13=Stonewall Jackson - Waterloo
TTITLE14=Dave Dudley - Seven Lonely Days
EXTD=
EXTT0=
EXTT1=
EXTT2=
EXTT3=
EXTT4=
EXTT5=
EXTT6=
EXTT7=
EXTT8=
EXTT9=
EXTT10=
EXTT11=
EXTT12=
EXTT13=
EXTT14=
PLAYORDER=
